<svg width="24" height="24" viewBox="0 0 20 20" fill="none" xmlns="http://www.w3.org/2000/svg">
<path d="M1.66675 10.1698C1.66675 8.26234 1.66675 7.309 2.10008 6.519C2.53175 5.72817 3.32258 5.23817 4.90341 4.2565L6.57008 3.22234C8.24091 2.18484 9.07675 1.6665 10.0001 1.6665C10.9234 1.6665 11.7584 2.18484 13.4301 3.22234L15.0967 4.2565C16.6776 5.23817 17.4684 5.72817 17.9009 6.519C18.3334 7.309 18.3334 8.26234 18.3334 10.169V11.4373C18.3334 14.6873 18.3334 16.3132 17.3567 17.3232C16.3809 18.3332 14.8092 18.3332 11.6667 18.3332H8.33341C5.19091 18.3332 3.61925 18.3332 2.64341 17.3232C1.66675 16.3132 1.66675 14.6882 1.66675 11.4373V10.1698Z" stroke="white" stroke-width="2"/>
<path d="M10 12.5V15" stroke="white" stroke-width="2" stroke-linecap="round"/>
</svg>
