<svg width="149" height="101" viewBox="0 0 149 101" fill="none" xmlns="http://www.w3.org/2000/svg">
<path d="M0 25.25C0 18.5533 2.94396 12.1308 8.18424 7.39555C13.4245 2.66026 20.5319 0 27.9427 0H74.514C81.9248 0 89.0322 2.66026 94.2725 7.39555C99.5128 12.1308 102.457 18.5533 102.457 25.25V75.75C102.457 82.4467 99.5128 88.8692 94.2725 93.6044C89.0322 98.3397 81.9248 101 74.514 101H27.9427C20.5319 101 13.4245 98.3397 8.18424 93.6044C2.94396 88.8692 0 82.4467 0 75.75V25.25ZM130.744 90.698L106.5 75.75V25.25L130.744 10.302C132.491 9.21254 134.534 8.57537 136.653 8.45937C138.772 8.34337 140.885 8.75297 142.765 9.64387C144.645 10.5348 146.219 11.8731 147.318 13.5141C148.417 15.155 148.999 17.0363 149 18.9543V82.0372C149 83.956 148.42 85.8383 147.322 87.4805C146.224 89.1227 144.649 90.4623 142.769 91.3542C140.889 92.2461 138.775 92.6564 136.655 92.5408C134.536 92.4251 132.492 91.7879 130.744 90.698Z" fill="url(#paint0_linear_337_2)"/>
<defs>
<linearGradient id="paint0_linear_337_2" x1="-5.5" y1="51" x2="149" y2="51" gradientUnits="userSpaceOnUse">
<stop stop-color="#0A3313"/>
<stop offset="0.405" stop-color="#206830"/>
<stop offset="1" stop-color="#3FCE5F"/>
</linearGradient>
</defs>
</svg>
