<svg width="558" height="136" viewBox="0 0 558 136" fill="none" xmlns="http://www.w3.org/2000/svg">
<rect width="136" height="136" rx="16" fill="white"/>
<path d="M20 54C20 50.287 21.8968 46.726 25.2731 44.1005C28.6494 41.475 33.2286 40 38.0034 40H68.009C72.7838 40 77.363 41.475 80.7393 44.1005C84.1156 46.726 86.0124 50.287 86.0124 54V82C86.0124 85.713 84.1156 89.274 80.7393 91.8995C77.363 94.525 72.7838 96 68.009 96H38.0034C33.2286 96 28.6494 94.525 25.2731 91.8995C21.8968 89.274 20 85.713 20 82V54ZM104.238 90.288L88.6174 82V54L104.238 45.712C105.363 45.1079 106.68 44.7547 108.045 44.6903C109.41 44.626 110.772 44.8531 111.983 45.3471C113.194 45.8411 114.208 46.5831 114.916 47.4929C115.624 48.4028 115.999 49.4459 116 50.5093V85.486C116 86.5499 115.626 87.5935 114.919 88.5041C114.211 89.4146 113.197 90.1573 111.985 90.6518C110.774 91.1463 109.412 91.3739 108.046 91.3097C106.681 91.2456 105.364 90.8923 104.238 90.288Z" fill="url(#paint0_linear_336_80)"/>
<path d="M255.376 34.48V100.912H246.64V51.376L224.56 100.912H218.416L196.24 51.28V100.912H187.504V34.48H196.912L221.488 89.392L246.064 34.48H255.376Z" fill="white"/>
<path d="M321.072 72.592C321.072 74.256 320.976 76.016 320.784 77.872H278.736C279.056 83.056 280.816 87.12 284.016 90.064C287.28 92.944 291.216 94.384 295.824 94.384C299.6 94.384 302.736 93.52 305.232 91.792C307.792 90 309.584 87.632 310.608 84.688H320.016C318.608 89.744 315.792 93.872 311.568 97.072C307.344 100.208 302.096 101.776 295.824 101.776C290.832 101.776 286.352 100.656 282.384 98.416C278.48 96.176 275.408 93.008 273.168 88.912C270.928 84.752 269.808 79.952 269.808 74.512C269.808 69.072 270.896 64.304 273.072 60.208C275.248 56.112 278.288 52.976 282.192 50.8C286.16 48.56 290.704 47.44 295.824 47.44C300.816 47.44 305.232 48.528 309.072 50.704C312.912 52.88 315.856 55.888 317.904 59.728C320.016 63.504 321.072 67.792 321.072 72.592ZM312.048 70.768C312.048 67.44 311.312 64.592 309.84 62.224C308.368 59.792 306.352 57.968 303.792 56.752C301.296 55.472 298.512 54.832 295.44 54.832C291.024 54.832 287.248 56.24 284.112 59.056C281.04 61.872 279.28 65.776 278.832 70.768H312.048Z" fill="white"/>
<path d="M383.483 72.592C383.483 74.256 383.387 76.016 383.195 77.872H341.147C341.467 83.056 343.227 87.12 346.427 90.064C349.691 92.944 353.627 94.384 358.235 94.384C362.011 94.384 365.147 93.52 367.643 91.792C370.203 90 371.995 87.632 373.019 84.688H382.427C381.019 89.744 378.203 93.872 373.979 97.072C369.755 100.208 364.507 101.776 358.235 101.776C353.243 101.776 348.763 100.656 344.795 98.416C340.891 96.176 337.819 93.008 335.579 88.912C333.339 84.752 332.219 79.952 332.219 74.512C332.219 69.072 333.307 64.304 335.483 60.208C337.659 56.112 340.699 52.976 344.603 50.8C348.571 48.56 353.115 47.44 358.235 47.44C363.227 47.44 367.643 48.528 371.483 50.704C375.323 52.88 378.267 55.888 380.315 59.728C382.427 63.504 383.483 67.792 383.483 72.592ZM374.459 70.768C374.459 67.44 373.723 64.592 372.251 62.224C370.779 59.792 368.763 57.968 366.203 56.752C363.707 55.472 360.923 54.832 357.851 54.832C353.435 54.832 349.659 56.24 346.523 59.056C343.451 61.872 341.691 65.776 341.243 70.768H374.459Z" fill="white"/>
<path d="M408.55 55.504V86.512C408.55 89.072 409.094 90.896 410.182 91.984C411.27 93.008 413.158 93.52 415.846 93.52H422.278V100.912H414.406C409.542 100.912 405.894 99.792 403.462 97.552C401.03 95.312 399.814 91.632 399.814 86.512V55.504H392.998V48.304H399.814V35.056H408.55V48.304H422.278V55.504H408.55Z" fill="white"/>
<path d="M444.287 34V76.336C444.287 82.288 445.727 86.704 448.607 89.584C451.551 92.464 455.615 93.904 460.799 93.904C465.919 93.904 469.919 92.464 472.799 89.584C475.743 86.704 477.215 82.288 477.215 76.336V34H485.951V76.24C485.951 81.808 484.831 86.512 482.591 90.352C480.351 94.128 477.311 96.944 473.471 98.8C469.695 100.656 465.439 101.584 460.703 101.584C455.967 101.584 451.679 100.656 447.839 98.8C444.063 96.944 441.055 94.128 438.815 90.352C436.639 86.512 435.551 81.808 435.551 76.24V34H444.287Z" fill="white"/>
<path d="M512.14 58C513.868 54.992 516.428 52.496 519.82 50.512C523.276 48.464 527.276 47.44 531.82 47.44C536.492 47.44 540.716 48.56 544.492 50.8C548.332 53.04 551.34 56.208 553.516 60.304C555.692 64.336 556.78 69.04 556.78 74.416C556.78 79.728 555.692 84.464 553.516 88.624C551.34 92.784 548.332 96.016 544.492 98.32C540.716 100.624 536.492 101.776 531.82 101.776C527.34 101.776 523.372 100.784 519.916 98.8C516.524 96.752 513.932 94.224 512.14 91.216V125.872H503.404V48.304H512.14V58ZM547.852 74.416C547.852 70.448 547.052 66.992 545.452 64.048C543.852 61.104 541.676 58.864 538.924 57.328C536.236 55.792 533.26 55.024 529.996 55.024C526.796 55.024 523.82 55.824 521.068 57.424C518.38 58.96 516.204 61.232 514.54 64.24C512.94 67.184 512.14 70.608 512.14 74.512C512.14 78.48 512.94 81.968 514.54 84.976C516.204 87.92 518.38 90.192 521.068 91.792C523.82 93.328 526.796 94.096 529.996 94.096C533.26 94.096 536.236 93.328 538.924 91.792C541.676 90.192 543.852 87.92 545.452 84.976C547.052 81.968 547.852 78.448 547.852 74.416Z" fill="white"/>
<path d="M255.376 34.48V100.912H246.64V51.376L224.56 100.912H218.416L196.24 51.28V100.912H187.504V34.48H196.912L221.488 89.392L246.064 34.48H255.376Z" stroke="white" stroke-width="2"/>
<path d="M321.072 72.592C321.072 74.256 320.976 76.016 320.784 77.872H278.736C279.056 83.056 280.816 87.12 284.016 90.064C287.28 92.944 291.216 94.384 295.824 94.384C299.6 94.384 302.736 93.52 305.232 91.792C307.792 90 309.584 87.632 310.608 84.688H320.016C318.608 89.744 315.792 93.872 311.568 97.072C307.344 100.208 302.096 101.776 295.824 101.776C290.832 101.776 286.352 100.656 282.384 98.416C278.48 96.176 275.408 93.008 273.168 88.912C270.928 84.752 269.808 79.952 269.808 74.512C269.808 69.072 270.896 64.304 273.072 60.208C275.248 56.112 278.288 52.976 282.192 50.8C286.16 48.56 290.704 47.44 295.824 47.44C300.816 47.44 305.232 48.528 309.072 50.704C312.912 52.88 315.856 55.888 317.904 59.728C320.016 63.504 321.072 67.792 321.072 72.592ZM312.048 70.768C312.048 67.44 311.312 64.592 309.84 62.224C308.368 59.792 306.352 57.968 303.792 56.752C301.296 55.472 298.512 54.832 295.44 54.832C291.024 54.832 287.248 56.24 284.112 59.056C281.04 61.872 279.28 65.776 278.832 70.768H312.048Z" stroke="white" stroke-width="2"/>
<path d="M383.483 72.592C383.483 74.256 383.387 76.016 383.195 77.872H341.147C341.467 83.056 343.227 87.12 346.427 90.064C349.691 92.944 353.627 94.384 358.235 94.384C362.011 94.384 365.147 93.52 367.643 91.792C370.203 90 371.995 87.632 373.019 84.688H382.427C381.019 89.744 378.203 93.872 373.979 97.072C369.755 100.208 364.507 101.776 358.235 101.776C353.243 101.776 348.763 100.656 344.795 98.416C340.891 96.176 337.819 93.008 335.579 88.912C333.339 84.752 332.219 79.952 332.219 74.512C332.219 69.072 333.307 64.304 335.483 60.208C337.659 56.112 340.699 52.976 344.603 50.8C348.571 48.56 353.115 47.44 358.235 47.44C363.227 47.44 367.643 48.528 371.483 50.704C375.323 52.88 378.267 55.888 380.315 59.728C382.427 63.504 383.483 67.792 383.483 72.592ZM374.459 70.768C374.459 67.44 373.723 64.592 372.251 62.224C370.779 59.792 368.763 57.968 366.203 56.752C363.707 55.472 360.923 54.832 357.851 54.832C353.435 54.832 349.659 56.24 346.523 59.056C343.451 61.872 341.691 65.776 341.243 70.768H374.459Z" stroke="white" stroke-width="2"/>
<path d="M408.55 55.504V86.512C408.55 89.072 409.094 90.896 410.182 91.984C411.27 93.008 413.158 93.52 415.846 93.52H422.278V100.912H414.406C409.542 100.912 405.894 99.792 403.462 97.552C401.03 95.312 399.814 91.632 399.814 86.512V55.504H392.998V48.304H399.814V35.056H408.55V48.304H422.278V55.504H408.55Z" stroke="white" stroke-width="2"/>
<path d="M444.287 34V76.336C444.287 82.288 445.727 86.704 448.607 89.584C451.551 92.464 455.615 93.904 460.799 93.904C465.919 93.904 469.919 92.464 472.799 89.584C475.743 86.704 477.215 82.288 477.215 76.336V34H485.951V76.24C485.951 81.808 484.831 86.512 482.591 90.352C480.351 94.128 477.311 96.944 473.471 98.8C469.695 100.656 465.439 101.584 460.703 101.584C455.967 101.584 451.679 100.656 447.839 98.8C444.063 96.944 441.055 94.128 438.815 90.352C436.639 86.512 435.551 81.808 435.551 76.24V34H444.287Z" stroke="white" stroke-width="2"/>
<path d="M512.14 58C513.868 54.992 516.428 52.496 519.82 50.512C523.276 48.464 527.276 47.44 531.82 47.44C536.492 47.44 540.716 48.56 544.492 50.8C548.332 53.04 551.34 56.208 553.516 60.304C555.692 64.336 556.78 69.04 556.78 74.416C556.78 79.728 555.692 84.464 553.516 88.624C551.34 92.784 548.332 96.016 544.492 98.32C540.716 100.624 536.492 101.776 531.82 101.776C527.34 101.776 523.372 100.784 519.916 98.8C516.524 96.752 513.932 94.224 512.14 91.216V125.872H503.404V48.304H512.14V58ZM547.852 74.416C547.852 70.448 547.052 66.992 545.452 64.048C543.852 61.104 541.676 58.864 538.924 57.328C536.236 55.792 533.26 55.024 529.996 55.024C526.796 55.024 523.82 55.824 521.068 57.424C518.38 58.96 516.204 61.232 514.54 64.24C512.94 67.184 512.14 70.608 512.14 74.512C512.14 78.48 512.94 81.968 514.54 84.976C516.204 87.92 518.38 90.192 521.068 91.792C523.82 93.328 526.796 94.096 529.996 94.096C533.26 94.096 536.236 93.328 538.924 91.792C541.676 90.192 543.852 87.92 545.452 84.976C547.052 81.968 547.852 78.448 547.852 74.416Z" stroke="white" stroke-width="2"/>
<defs>
<linearGradient id="paint0_linear_336_80" x1="16.4564" y1="68.2772" x2="116" y2="68.2772" gradientUnits="userSpaceOnUse">
<stop stop-color="#0A3313"/>
<stop offset="0.405" stop-color="#206830"/>
<stop offset="1" stop-color="#3FCE5F"/>
</linearGradient>
</defs>
</svg>
